<?xml version="1.0" standalone="no"?>
<!DOCTYPE svg PUBLIC "-//W3C//DTD SVG 20010904//EN"
 "http://www.w3.org/TR/2001/REC-SVG-20010904/DTD/svg10.dtd">
<svg version="1.0" xmlns="http://www.w3.org/2000/svg"
 width="257.000000pt" height="135.000000pt" viewBox="0 0 257.000000 135.000000"
 preserveAspectRatio="xMidYMid meet">

<g transform="translate(0.000000,135.000000) scale(0.100000,-0.100000)"
fill="#000000" stroke="none">
<path d="M2565 675 c0 -374 1 -526 2 -337 2 189 2 495 0 680 -1 185 -2 31 -2
-343z"/>
<path d="M1080 1014 c-114 -17 -193 -37 -269 -67 -50 -20 -59 -21 -84 -9 -39
19 -115 18 -230 -3 -74 -13 -98 -21 -102 -35 -3 -10 -1 -56 4 -102 5 -45 13
-130 16 -188 4 -58 11 -112 16 -121 15 -29 65 -42 135 -35 60 6 69 5 98 -17
261 -199 814 -201 1085 -3 37 27 58 34 106 38 119 8 155 51 155 181 0 49 -5
88 -15 107 -17 33 -63 68 -114 86 -26 9 -35 18 -33 31 1 10 5 36 9 57 l6 39
-50 -5 c-38 -4 -55 -1 -72 13 -28 23 -47 15 -62 -26 l-12 -33 -43 19 c-70 30
-141 48 -267 69 -134 23 -146 23 -277 4z m205 -25 c5 -5 23 -9 40 -9 84 -1
304 -68 306 -94 0 -6 2 -20 4 -30 5 -26 -9 -53 -20 -37 -4 8 -13 1 -23 -21
-16 -30 -21 -33 -69 -36 l-52 -3 2 -64 c1 -35 5 -66 9 -70 14 -14 64 -15 83
-1 16 12 17 17 7 37 -7 13 -10 16 -8 7 3 -11 0 -18 -9 -18 -8 0 -12 -6 -9 -14
4 -11 -1 -14 -23 -12 -26 3 -28 6 -31 54 l-3 51 52 3 c48 3 53 6 70 38 22 41
25 24 4 -26 -8 -19 -15 -38 -17 -42 -2 -4 -6 -6 -11 -4 -12 4 -3 -22 11 -33
19 -15 30 -76 20 -101 -35 -79 -183 -60 -236 31 l-24 40 7 -44 c5 -39 4 -43
-10 -31 -14 11 -17 10 -22 -8 -7 -27 -46 -38 -78 -24 -13 6 -33 28 -44 49 -16
30 -20 34 -21 16 0 -12 4 -33 9 -46 8 -21 7 -24 -11 -23 -26 1 -29 14 -38 146
l-6 105 -2 -126 -2 -126 -47 0 c-27 1 -69 -3 -96 -7 -37 -7 -56 -5 -87 9 -62
28 -73 53 -81 188 -4 65 -11 123 -17 129 -6 6 -8 0 -6 -17 1 -15 0 -24 -3 -21
-11 11 -12 56 -1 56 6 0 6 6 -2 15 -10 12 -9 15 4 15 10 0 15 4 11 9 -14 24
209 81 315 81 49 0 60 3 60 16 0 14 7 15 43 10 23 -4 46 -11 52 -17z m505 -49
c19 6 36 10 37 10 7 0 2 -44 -8 -61 -38 -71 -149 -22 -118 52 l12 30 21 -20
c19 -18 27 -19 56 -11z m-1080 -25 c16 -8 34 -24 40 -34 13 -25 13 -97 0 -120
-7 -13 -4 -29 10 -57 37 -72 17 -147 -48 -180 -20 -11 -39 -22 -42 -25 -5 -6
-129 -13 -177 -10 -34 2 -42 28 -53 183 -5 79 -13 162 -16 184 l-6 42 79 15
c103 20 177 21 213 2z m1188 -106 c58 -32 72 -61 72 -156 0 -93 -12 -116 -77
-144 -60 -26 -92 -24 -154 8 -74 39 -89 68 -89 174 0 89 5 102 50 133 35 25
140 17 198 -15z m-865 -404 c77 18 198 18 209 1 5 -8 8 -7 8 2 0 17 98 16 173
-2 53 -12 65 -12 120 5 33 10 63 17 65 14 7 -6 -182 -63 -253 -76 -103 -18
-281 -7 -385 24 -79 24 -180 64 -180 71 0 2 39 -10 87 -26 l86 -29 70 16z"/>
<path d="M1304 778 c1 -144 4 -190 15 -200 11 -11 12 -9 5 12 -4 14 -10 104
-14 200 l-7 175 1 -187z"/>
<path d="M944 716 c1 -63 5 -101 12 -103 7 -2 10 5 7 19 -2 13 -8 59 -12 103
l-9 80 2 -99z"/>
<path d="M1021 634 c0 -11 3 -14 6 -6 3 7 2 16 -1 19 -3 4 -6 -2 -5 -13z"/>
<path d="M572 843 c-32 -4 -33 -6 -30 -46 3 -41 3 -42 38 -39 42 4 70 27 70
57 0 20 -20 38 -38 33 -4 0 -22 -3 -40 -5z"/>
<path d="M578 673 c-24 -4 -28 -9 -28 -38 0 -57 6 -63 52 -55 58 11 87 57 56
88 -12 12 -28 13 -80 5z"/>
<path d="M1773 749 c-8 -8 -13 -40 -13 -81 0 -65 1 -69 27 -79 49 -19 69 0 77
72 4 45 3 67 -7 76 -19 19 -70 26 -84 12z"/>
<path d="M1149 383 c-13 -16 -12 -17 4 -4 9 7 17 15 17 17 0 8 -8 3 -21 -13z"/>
<path d="M1197 380 c-3 -11 -1 -20 4 -20 5 0 9 9 9 20 0 11 -2 20 -4 20 -2 0
-6 -9 -9 -20z"/>
<path d="M1290 396 c0 -2 8 -10 18 -17 15 -13 16 -12 3 4 -13 16 -21 21 -21
13z"/>
<path d="M1251 374 c0 -11 3 -14 6 -6 3 7 2 16 -1 19 -3 4 -6 -2 -5 -13z"/>
</g>
</svg>
