<?xml version="1.0" standalone="no"?>
<!DOCTYPE svg PUBLIC "-//W3C//DTD SVG 20010904//EN"
 "http://www.w3.org/TR/2001/REC-SVG-20010904/DTD/svg10.dtd">
<svg version="1.0" xmlns="http://www.w3.org/2000/svg"
 width="1046.000000pt" height="140.000000pt" viewBox="0 0 1046.000000 140.000000"
 preserveAspectRatio="xMidYMid meet">

<g transform="translate(0.000000,140.000000) scale(0.100000,-0.100000)"
fill="#000000" stroke="none">
<path d="M670 845 l0 -395 590 0 590 0 0 395 0 395 -590 0 -590 0 0 -395z
m600 285 c0 -5 7 -7 14 -4 12 5 13 2 4 -18 -12 -25 -61 -37 -51 -12 3 8 0 14
-6 14 -6 0 -11 4 -11 10 0 5 7 7 15 4 8 -4 15 -1 15 5 0 6 5 11 10 11 6 0 10
-4 10 -10z m-110 -48 c-6 -2 -10 -11 -10 -20 0 -11 -8 -17 -24 -17 -13 0 -22
4 -19 8 3 4 -1 14 -7 22 -10 12 -9 15 4 15 9 0 16 4 16 9 0 5 11 4 25 -2 13
-7 20 -13 15 -15z m240 18 c0 -5 7 -10 16 -10 13 0 14 -3 4 -15 -6 -8 -9 -18
-6 -23 3 -5 -8 -9 -24 -9 -16 0 -27 4 -24 9 3 5 0 15 -6 23 -10 12 -9 15 4 15
9 0 16 5 16 10 0 6 5 10 10 10 6 0 10 -4 10 -10z m-342 -110 c13 0 14 -2 4 -8
-8 -5 -10 -16 -5 -28 6 -17 5 -17 -10 -6 -9 8 -20 11 -26 8 -16 -10 -17 28 -1
47 13 15 15 16 18 2 2 -8 11 -15 20 -15z m454 -23 c-3 -10 -10 -16 -17 -13 -7
2 -18 -1 -25 -7 -10 -9 -12 -8 -7 4 3 9 0 22 -6 28 -8 8 -7 11 6 11 9 0 17 7
17 15 0 12 3 12 18 -2 10 -10 16 -26 14 -36z m-493 -121 c-4 -5 -5 -16 -2 -25
5 -13 3 -14 -7 -4 -11 10 -17 10 -29 0 -12 -10 -14 -9 -9 4 4 9 1 22 -5 28 -8
8 -7 11 6 11 9 0 17 7 17 15 0 12 3 12 19 -2 10 -10 15 -22 10 -27z m511 24
c0 -5 8 -10 17 -10 13 0 14 -3 6 -11 -6 -6 -9 -19 -5 -28 5 -14 3 -14 -10 -3
-13 11 -18 11 -24 0 -6 -9 -10 -5 -14 12 -3 14 -1 30 5 37 12 15 25 16 25 3z
m-490 -130 c0 -5 7 -10 16 -10 13 0 14 -3 4 -15 -6 -8 -10 -18 -7 -22 3 -4 -6
-8 -19 -8 -16 0 -24 6 -24 17 0 9 -6 19 -12 21 -8 3 -6 6 5 6 9 1 17 6 17 11
0 6 5 10 10 10 6 0 10 -4 10 -10z m471 -23 c-5 -5 -7 -15 -5 -21 2 -6 -6 -11
-21 -11 -15 0 -23 5 -21 11 2 6 -1 17 -7 23 -8 8 -7 11 6 11 9 0 17 5 17 10 0
6 8 5 20 -2 11 -7 16 -16 11 -21z m-367 -79 c20 -19 8 -45 -20 -45 -13 0 -21
4 -18 9 4 6 0 14 -7 19 -11 7 -10 9 4 9 9 0 17 5 17 10 0 13 8 13 24 -2z m256
2 c0 -5 8 -10 18 -11 10 0 12 -3 5 -6 -7 -2 -13 -10 -13 -17 0 -6 -9 -12 -20
-12 -11 0 -20 6 -20 12 0 7 -6 15 -12 17 -8 3 -6 6 5 6 9 1 17 6 17 11 0 6 5
10 10 10 6 0 10 -4 10 -10z m-113 -64 c-6 -12 -21 -22 -33 -22 -13 -1 -21 2
-18 8 3 5 0 15 -6 23 -10 12 -9 15 4 15 9 0 16 4 16 9 0 5 10 4 23 -2 19 -9
22 -14 14 -31z"/>
<path d="M4283 1168 c-9 -12 -193 -519 -193 -533 0 -3 26 -5 58 -5 l57 0 15
53 15 52 116 3 116 3 14 -53 c13 -50 16 -53 48 -56 l33 -3 -23 33 c-22 30 -24
44 -24 143 -1 107 -2 114 -50 243 l-49 132 -62 0 c-37 0 -65 -5 -71 -12z m143
-310 c5 -16 -2 -18 -75 -18 l-80 0 35 103 c19 56 37 109 40 117 5 12 38 -72
80 -202z"/>
<path d="M2795 1079 c-160 -22 -408 -103 -490 -160 -17 -12 -21 -18 -10 -14
218 78 382 112 608 126 286 18 601 -18 829 -96 54 -18 98 -31 98 -28 0 11
-193 94 -271 117 -180 52 -223 57 -464 61 -126 2 -261 -1 -300 -6z"/>
<path d="M8980 1044 c-115 -17 -194 -37 -270 -68 -52 -21 -60 -21 -85 -8 -16
8 -54 14 -89 14 -78 -1 -216 -28 -234 -46 -11 -11 -12 -31 -3 -107 5 -52 13
-139 17 -194 3 -55 10 -107 15 -116 15 -29 65 -42 135 -35 60 6 69 5 98 -17
261 -200 815 -201 1086 -2 38 28 57 35 92 35 82 0 137 31 159 88 15 38 11 170
-6 202 -17 33 -63 68 -114 86 -30 10 -35 17 -32 36 2 13 4 37 5 53 1 29 0 30
-44 30 -25 0 -55 8 -69 17 -30 21 -48 14 -62 -26 l-12 -33 -71 28 c-39 15
-109 35 -156 43 -226 42 -211 41 -360 20z m208 -23 c9 -5 53 -14 97 -21 100
-15 196 -44 227 -69 19 -16 23 -28 22 -73 -2 -68 -26 -121 -81 -175 -27 -27
-37 -43 -27 -43 27 0 54 20 54 40 0 25 16 26 30 1 12 -23 13 -81 2 -97 -25
-38 -122 -48 -174 -17 -18 10 -43 37 -56 59 l-24 39 6 -42 c5 -37 4 -41 -14
-36 -14 4 -20 0 -20 -11 0 -21 -45 -31 -75 -18 -13 6 -34 28 -45 49 l-21 38 6
-42 c5 -38 3 -43 -15 -43 -11 0 -21 6 -21 13 -1 6 -5 59 -9 117 l-7 105 -1
-121 -2 -121 -47 0 c-27 0 -71 -3 -99 -7 -41 -7 -57 -5 -91 12 -55 29 -73 70
-73 170 0 93 -8 144 -22 136 -18 -11 3 60 22 77 29 25 175 61 273 67 68 4 87
8 87 20 0 11 8 13 40 8 23 -3 49 -10 58 -15z m502 -51 c19 6 36 10 37 10 9 0
0 -49 -12 -67 -45 -64 -144 -14 -114 58 l12 30 21 -20 c19 -18 27 -19 56 -11z
m-1080 -25 c16 -8 34 -24 40 -34 13 -25 13 -97 0 -120 -7 -13 -4 -29 10 -57
37 -72 17 -147 -48 -180 -20 -11 -38 -22 -40 -26 -2 -5 -48 -8 -102 -8 -88 0
-100 2 -110 19 -5 11 -14 84 -20 163 -5 79 -13 162 -16 184 l-6 42 79 15 c103
20 177 21 213 2z m1183 -105 c63 -30 77 -59 77 -160 0 -77 -2 -83 -29 -111
-16 -16 -39 -29 -50 -29 -11 0 -23 -4 -26 -10 -3 -5 -24 -10 -46 -10 -21 0
-39 5 -39 10 0 6 -7 10 -15 10 -29 0 -76 31 -95 63 -16 25 -20 50 -20 118 0
89 5 102 50 133 34 24 129 17 193 -14z m-1086 -22 c-3 -8 -6 -5 -6 6 -1 11 2
17 5 13 3 -3 4 -12 1 -19z m8 -356 c-3 -3 -11 0 -18 7 -9 10 -8 11 6 5 10 -3
15 -9 12 -12z m97 -26 c51 -15 62 -15 123 -1 75 18 196 18 207 1 5 -8 8 -7 8
2 0 16 98 16 171 -1 49 -12 63 -11 120 4 97 27 83 14 -23 -20 -138 -44 -214
-54 -347 -48 -117 5 -259 38 -320 73 -14 8 -19 13 -11 11 8 -2 41 -12 72 -21z"/>
<path d="M9204 808 c1 -144 4 -190 15 -200 11 -11 12 -9 5 12 -4 14 -10 104
-14 200 l-7 175 1 -187z"/>
<path d="M9489 827 c-12 -29 -19 -33 -64 -37 -49 -5 -50 -6 -53 -39 -4 -42 6
-101 17 -101 4 0 6 25 3 55 l-4 55 45 0 c52 0 87 27 87 66 0 36 -15 36 -31 1z"/>
<path d="M8844 746 c1 -63 5 -101 12 -103 7 -2 10 5 7 19 -2 13 -8 59 -12 103
l-9 80 2 -99z"/>
<path d="M9031 824 c0 -11 3 -14 6 -6 3 7 2 16 -1 19 -3 4 -6 -2 -5 -13z"/>
<path d="M8921 664 c0 -11 3 -14 6 -6 3 7 2 16 -1 19 -3 4 -6 -2 -5 -13z"/>
<path d="M8472 873 c-32 -4 -33 -6 -30 -46 3 -41 3 -42 38 -39 42 4 70 27 70
57 0 20 -20 38 -38 33 -4 0 -22 -3 -40 -5z"/>
<path d="M8482 703 c-33 -4 -33 -5 -30 -51 l3 -47 35 4 c48 4 69 17 76 48 5
19 2 30 -11 40 -11 7 -24 12 -29 11 -6 0 -26 -3 -44 -5z"/>
<path d="M9672 778 c-7 -7 -12 -40 -12 -80 0 -65 1 -69 27 -79 50 -19 69 0 76
73 6 56 4 65 -14 81 -24 20 -60 22 -77 5z"/>
<path d="M9049 413 c-13 -16 -12 -17 4 -4 9 7 17 15 17 17 0 8 -8 3 -21 -13z"/>
<path d="M9097 411 c-4 -17 -3 -21 5 -13 5 5 8 16 6 23 -3 8 -7 3 -11 -10z"/>
<path d="M9190 426 c0 -2 8 -10 18 -17 15 -13 16 -12 3 4 -13 16 -21 21 -21
13z"/>
<path d="M9151 404 c0 -11 3 -14 6 -6 3 7 2 16 -1 19 -3 4 -6 -2 -5 -13z"/>
<path d="M3517 864 c-11 -11 5 -34 24 -34 12 0 19 7 19 20 0 19 -28 28 -43 14z"/>
<path d="M2540 750 c0 -103 1 -110 20 -110 19 0 20 7 20 110 0 103 -1 110 -20
110 -19 0 -20 -7 -20 -110z"/>
<path d="M3140 750 c0 -103 1 -110 20 -110 19 0 20 7 20 110 0 103 -1 110 -20
110 -19 0 -20 -7 -20 -110z"/>
<path d="M3700 831 c0 -25 -5 -30 -35 -35 -42 -8 -65 -39 -65 -88 0 -53 18
-66 90 -65 48 0 60 3 55 14 -3 8 -5 57 -5 109 0 87 -1 94 -20 94 -15 0 -20 -7
-20 -29z m0 -112 c0 -49 -1 -50 -27 -47 -24 2 -29 8 -31 36 -4 38 12 62 39 62
16 0 19 -8 19 -51z"/>
<path d="M2380 820 c-11 -11 -20 -26 -20 -33 0 -24 30 -56 66 -67 52 -17 43
-45 -14 -44 -34 1 -42 -2 -40 -15 2 -11 17 -17 47 -19 55 -4 83 18 79 62 -2
26 -11 34 -46 50 -57 26 -54 52 6 49 29 -1 42 2 42 12 0 31 -90 35 -120 5z"/>
<path d="M3367 828 c-3 -7 -21 -52 -41 -100 -32 -82 -33 -88 -15 -88 12 0 23
10 29 26 9 22 15 25 47 22 31 -2 39 -7 41 -25 3 -17 10 -23 28 -23 16 0 24 5
22 13 -2 6 -16 51 -33 100 -25 74 -32 87 -51 87 -12 0 -24 -6 -27 -12z m38
-80 c6 -24 4 -28 -14 -28 -22 0 -25 10 -15 48 8 27 20 19 29 -20z"/>
<path d="M6858 829 c-10 -5 -18 -21 -18 -34 0 -18 8 -26 35 -35 25 -8 35 -18
35 -32 0 -17 -5 -20 -35 -16 -28 3 -35 1 -33 -11 7 -35 83 -24 100 14 9 20 8
28 -6 44 -10 11 -28 22 -42 25 -34 9 -30 26 6 26 20 0 30 5 30 15 0 17 -45 20
-72 4z"/>
<path d="M7092 763 c2 -50 7 -78 16 -81 9 -3 12 17 12 77 0 66 -3 81 -15 81
-13 0 -15 -13 -13 -77z"/>
<path d="M7172 828 c-7 -7 -12 -17 -12 -24 0 -7 -6 -15 -12 -18 -10 -5 -10 -7
0 -12 7 -3 12 -24 12 -51 0 -56 23 -55 28 3 2 21 9 42 15 46 9 6 8 11 -3 19
-11 8 -12 12 -2 16 16 6 16 33 -1 33 -7 0 -18 -5 -25 -12z"/>
<path d="M7300 760 c0 -64 3 -80 15 -80 10 0 15 11 15 35 0 33 2 35 35 35 33
0 35 -2 35 -35 0 -24 5 -35 15 -35 12 0 15 16 15 80 0 64 -3 80 -15 80 -10 0
-15 -10 -15 -30 0 -28 -3 -30 -35 -30 -32 0 -35 2 -35 30 0 20 -5 30 -15 30
-12 0 -15 -16 -15 -80z"/>
<path d="M7580 760 c0 -47 4 -80 10 -80 6 0 10 33 10 80 0 47 -4 80 -10 80 -6
0 -10 -33 -10 -80z"/>
<path d="M2663 790 c-45 -18 -58 -95 -23 -130 46 -46 130 -8 130 58 0 43 -7
55 -37 71 -25 13 -40 13 -70 1z m67 -69 c0 -16 -7 -34 -16 -42 -36 -30 -73 41
-39 75 23 23 55 4 55 -33z"/>
<path d="M2993 793 c-40 -8 -27 -33 17 -33 33 0 40 -3 40 -20 0 -16 -7 -20
-35 -20 -28 0 -38 -5 -47 -25 -17 -39 2 -53 72 -52 l59 0 -6 66 c-3 36 -9 69
-12 73 -9 10 -61 17 -88 11z m57 -102 c0 -25 -25 -34 -41 -15 -10 13 -10 17 2
25 23 14 39 10 39 -10z"/>
<path d="M2804 748 c31 -98 37 -108 62 -108 15 0 27 7 31 18 3 9 16 43 28 75
l23 57 -23 0 c-18 0 -25 -9 -35 -45 -7 -25 -16 -48 -21 -51 -7 -4 -29 57 -29
84 0 6 -11 12 -25 12 -24 0 -24 0 -11 -42z"/>
<path d="M3211 759 l-24 -32 22 -43 c16 -35 26 -44 46 -44 l26 0 -27 46 -27
45 22 23 c26 27 26 36 3 36 -10 0 -29 -14 -41 -31z"/>
<path d="M3500 775 c0 -8 5 -15 10 -15 6 0 10 -27 10 -60 0 -53 2 -60 20 -60
18 0 20 7 20 75 l0 75 -30 0 c-20 0 -30 -5 -30 -15z"/>
<path d="M6988 779 c-24 -13 -23 -61 0 -82 19 -18 40 -21 66 -11 24 9 19 27
-5 21 -27 -7 -49 1 -49 19 0 9 12 14 36 14 36 0 36 1 22 23 -17 25 -45 32 -70
16z m47 -19 c3 -5 -3 -10 -14 -10 -12 0 -21 5 -21 10 0 6 6 10 14 10 8 0 18
-4 21 -10z"/>
<path d="M7473 782 c-24 -15 -26 -59 -3 -82 24 -24 70 -24 78 -1 3 10 0 12
-12 8 -19 -8 -56 8 -56 23 0 6 16 10 35 10 38 0 44 10 19 34 -17 17 -42 20
-61 8z m47 -22 c0 -5 -9 -10 -21 -10 -11 0 -17 5 -14 10 3 6 13 10 21 10 8 0
14 -4 14 -10z"/>
<path d="M7630 714 c0 -59 3 -74 15 -74 8 0 15 9 15 20 0 15 7 20 25 20 15 0
31 10 42 26 15 24 15 29 2 53 -12 21 -23 26 -57 28 l-42 2 0 -75z m70 41 c16
-20 5 -45 -20 -45 -14 0 -20 7 -20 23 0 38 18 48 40 22z"/>
<path d="M6879 583 c-42 -110 -48 -133 -33 -133 8 0 19 11 24 25 7 19 17 25
40 25 23 0 31 -5 36 -25 3 -14 12 -25 20 -25 18 0 18 0 -12 86 -20 57 -31 74
-46 74 -11 0 -23 -11 -29 -27z m41 -57 c-15 -15 -32 7 -24 29 7 17 8 17 21 -1
9 -12 10 -21 3 -28z"/>
<path d="M7022 598 c-7 -7 -12 -18 -12 -25 0 -7 -4 -13 -10 -13 -5 0 -10 -7
-10 -15 0 -8 5 -15 10 -15 6 0 10 -18 10 -40 0 -29 4 -40 15 -40 11 0 15 11
15 40 0 22 5 40 10 40 14 0 12 27 -2 34 -10 3 -8 9 4 19 18 14 14 27 -7 27 -6
0 -16 -5 -23 -12z"/>
<path d="M7185 600 c-4 -6 -3 -16 3 -22 6 -6 12 -6 17 2 4 6 3 16 -3 22 -6 6
-12 6 -17 -2z"/>
<path d="M5180 535 c0 -37 4 -65 10 -65 6 0 10 14 10 30 0 37 11 38 32 2 14
-24 23 -28 65 -28 26 -1 38 1 26 3 -12 2 -27 11 -33 19 -11 12 -7 14 24 14 29
0 36 4 36 20 0 27 -34 44 -60 30 -20 -11 -24 -25 -20 -65 1 -15 -4 -12 -24 14
l-26 35 27 28 c34 36 18 37 -19 1 l-28 -27 0 27 c0 15 -4 27 -10 27 -6 0 -10
-28 -10 -65z m153 0 c-3 -13 -53 -20 -53 -7 0 15 13 23 35 20 11 -2 19 -7 18
-13z"/>
<path d="M5383 563 c-20 -4 -23 -11 -23 -49 0 -53 18 -59 22 -7 2 27 8 39 21
41 14 3 17 -4 17 -37 0 -23 5 -41 10 -41 14 0 12 74 -2 88 -7 7 -14 11 -17 11
-4 -1 -16 -4 -28 -6z"/>
<path d="M5453 558 c32 -86 32 -86 11 -109 -14 -16 -15 -21 -4 -17 18 5 56 71
66 113 9 38 -7 25 -22 -18 l-11 -32 -16 38 c-9 20 -19 37 -23 37 -3 0 -4 -6
-1 -12z"/>
<path d="M5550 560 c-12 -8 -9 -10 13 -10 34 0 35 -18 1 -26 -18 -5 -24 -12
-22 -28 2 -16 10 -21 36 -22 30 -1 32 1 32 36 0 52 -25 73 -60 50z m44 -49 c3
-5 -1 -14 -10 -21 -11 -10 -18 -10 -27 -1 -9 9 -9 14 3 21 19 12 27 12 34 1z"/>
<path d="M7090 503 c0 -29 5 -53 10 -53 6 0 10 16 10 36 0 27 5 37 20 41 31 8
24 30 -10 30 -30 0 -30 -1 -30 -54z"/>
<path d="M7180 506 c0 -38 4 -56 13 -56 8 0 12 17 12 52 0 32 -5 53 -12 55
-10 4 -13 -11 -13 -51z"/>
<path d="M7250 540 c-24 -24 -25 -38 -4 -68 17 -25 64 -30 64 -7 0 8 -9 15
-20 15 -28 0 -38 30 -15 46 10 7 22 11 26 8 5 -3 9 2 9 10 0 23 -36 20 -60 -4z"/>
<path d="M7350 550 c0 -5 9 -10 19 -10 11 0 23 -4 26 -10 3 -6 -4 -10 -18 -10
-14 0 -30 -7 -38 -16 -21 -25 1 -49 49 -51 l40 -2 -5 42 c-2 23 -6 48 -9 55
-4 14 -64 17 -64 2z m42 -72 c-9 -9 -15 -9 -24 0 -10 10 -10 15 2 22 20 12 38
-6 22 -22z"/>
<path d="M2410 445 l0 -75 645 0 645 0 0 75 0 75 -645 0 -645 0 0 -75z m115
35 c3 -5 -3 -10 -15 -10 -24 0 -38 -26 -21 -43 8 -8 15 -6 26 9 14 19 14 19
15 -3 0 -41 -56 -37 -67 5 -4 18 -1 29 12 39 22 15 41 17 50 3z m83 -2 c34
-34 -6 -90 -48 -68 -25 13 -26 55 -2 69 23 14 36 13 50 -1z m87 -1 c39 -29 -6
-89 -49 -65 -21 12 -21 54 2 67 22 14 25 13 47 -2z m76 3 c37 -20 17 -70 -28
-70 -20 0 -23 5 -23 40 0 43 13 50 51 30z m79 -36 c0 -19 -4 -34 -10 -34 -5 0
-10 18 -10 41 0 24 4 38 10 34 6 -3 10 -22 10 -41z m64 33 c11 -8 17 -23 14
-38 -2 -19 -10 -25 -35 -27 -31 -3 -33 -2 -33 31 0 49 18 60 54 34z m66 3 c0
-5 -4 -10 -9 -10 -5 0 -8 -11 -8 -25 0 -37 20 -30 38 13 l16 37 18 -37 c18
-36 13 -68 -5 -38 -7 12 -12 12 -22 2 -6 -6 -25 -12 -40 -12 -26 0 -28 3 -28
40 0 33 3 40 20 40 11 0 20 -4 20 -10z m150 1 c0 -5 -6 -11 -12 -14 -9 -3 -7
-9 7 -20 18 -14 18 -17 5 -31 -10 -11 -20 -12 -30 -6 -13 8 -12 10 4 10 18 0
18 1 1 20 -19 21 -14 50 10 50 8 0 15 -4 15 -9z m40 -32 c0 -18 5 -29 14 -29
9 0 12 7 9 19 -5 19 20 51 40 51 18 0 33 -13 40 -33 8 -21 -28 -61 -45 -50 -7
4 -27 6 -45 5 -32 -3 -33 -2 -33 38 0 25 4 39 10 35 6 -3 10 -19 10 -36z m133
15 l14 -27 7 27 c3 14 11 26 16 26 13 0 13 -4 -4 -45 -18 -43 -31 -44 -45 -4
-19 54 -11 68 12 23z m112 -53 c-3 -2 -12 2 -21 9 -13 12 -17 11 -24 0 -18
-28 -21 -1 -4 36 l16 39 18 -40 c11 -22 17 -41 15 -44z m44 63 c21 25 35 19
18 -8 -12 -17 -13 -26 -4 -35 19 -19 26 -13 30 27 l4 37 1 -42 c2 -39 0 -43
-22 -43 -14 0 -28 5 -32 11 -4 8 -9 7 -15 -2 -6 -9 -8 2 -8 31 0 29 3 39 8 27
6 -17 8 -17 20 -3z m121 -24 c13 -32 5 -55 -10 -30 -7 12 -12 12 -22 2 -22
-22 -27 -12 -11 28 18 44 25 44 43 0z"/>
<path d="M2563 454 c-3 -8 -1 -20 5 -26 15 -15 43 8 35 28 -7 19 -32 18 -40
-2z"/>
<path d="M2647 456 c-7 -17 18 -40 33 -31 5 3 10 15 10 26 0 23 -35 27 -43 5z"/>
<path d="M2740 445 c0 -17 5 -25 13 -22 6 2 12 12 12 22 0 10 -6 20 -12 23 -8
2 -13 -6 -13 -23z"/>
<path d="M2880 445 c0 -17 5 -25 13 -22 6 2 12 12 12 22 0 10 -6 20 -12 23 -8
2 -13 -6 -13 -23z"/>
<path d="M3214 455 c-4 -9 -2 -21 4 -27 15 -15 44 -1 40 19 -4 23 -36 29 -44
8z"/>
<path d="M4913 400 c0 -25 2 -35 4 -22 2 12 8 22 13 22 5 0 11 -10 13 -22 4
-20 4 -19 6 5 1 17 -4 27 -13 27 -8 0 -17 8 -19 18 -3 9 -5 -3 -4 -28z"/>
<path d="M5033 400 c0 -25 2 -35 4 -22 2 12 2 32 0 45 -2 12 -4 2 -4 -23z"/>
<path d="M5063 395 c0 -27 2 -38 4 -22 2 15 2 37 0 50 -2 12 -4 0 -4 -28z"/>
<path d="M5381 393 c1 -27 4 -38 6 -26 2 12 12 24 21 26 15 4 15 5 0 6 -10 0
-18 7 -18 15 0 8 8 17 18 19 13 4 11 5 -5 6 -21 1 -23 -3 -22 -46z"/>
<path d="M5611 425 c-2 -11 -4 -28 -5 -37 -2 -24 -21 -22 -20 2 0 10 -3 17 -8
14 -13 -8 -9 -41 5 -47 26 -10 39 9 34 49 -2 21 -5 30 -6 19z"/>
<path d="M4837 423 c-15 -14 -6 -53 14 -63 11 -7 23 -9 26 -7 2 3 -5 8 -16 12
-23 7 -29 50 -8 58 6 3 7 6 1 6 -6 1 -14 -2 -17 -6z"/>
<path d="M4988 403 c10 -4 8 -8 -5 -18 -15 -11 -16 -16 -5 -27 11 -11 12 -10
7 5 -4 9 -3 17 3 17 6 0 12 -6 15 -12 7 -22 19 -1 12 21 -3 12 -14 21 -23 20
-11 0 -13 -2 -4 -6z"/>
<path d="M5097 403 c-13 -12 -7 -41 9 -47 14 -5 15 -4 4 9 -10 13 -9 15 9 15
23 0 28 14 9 26 -7 4 -8 3 -4 -4 4 -7 1 -12 -9 -12 -9 0 -13 5 -10 10 7 11 2
13 -8 3z"/>
<path d="M5151 383 c0 -27 1 -27 9 -5 5 12 14 22 19 22 5 0 12 -10 14 -22 4
-20 4 -19 6 5 1 23 -3 27 -24 27 -21 0 -25 -5 -24 -27z"/>
<path d="M5220 385 c0 -14 4 -25 9 -25 5 0 7 9 4 20 -4 14 0 20 11 20 13 0 16
-7 12 -30 -2 -16 0 -30 5 -30 5 0 9 16 9 35 0 31 -3 35 -25 35 -20 0 -25 -5
-25 -25z"/>
<path d="M5297 403 c-13 -12 -7 -41 9 -47 14 -5 15 -4 4 9 -10 12 -10 15 4 15
9 0 16 8 15 18 0 10 -3 12 -6 5 -2 -7 -9 -13 -14 -13 -6 0 -7 5 -4 10 7 11 2
13 -8 3z"/>
<path d="M5440 386 c0 -14 4 -27 8 -30 5 -3 6 8 4 25 -5 35 -12 38 -12 5z"/>
<path d="M5472 385 c0 -16 2 -22 5 -12 2 9 2 23 0 30 -3 6 -5 -1 -5 -18z"/>
<path d="M5501 383 c2 -24 2 -25 6 -5 6 31 31 28 36 -5 4 -26 4 -26 6 5 1 28
-2 32 -24 32 -21 0 -25 -4 -24 -27z"/>
<path d="M312 363 c12 -3 18 -17 21 -46 l4 -42 1 42 c2 30 7 43 20 46 9 3 -1
5 -23 5 -22 0 -32 -2 -23 -5z"/>
<path d="M380 325 c0 -25 5 -45 10 -45 6 0 10 14 10 31 0 39 22 34 31 -7 l7
-29 1 33 c1 26 -4 35 -19 39 -11 3 -20 9 -20 14 0 5 -4 9 -10 9 -5 0 -10 -20
-10 -45z"/>
<path d="M1448 358 c-2 -7 -1 -29 3 -48 6 -35 6 -35 8 -5 2 17 4 38 6 48 4 19
-11 24 -17 5z"/>
<path d="M1680 361 c0 -5 -10 -11 -22 -13 -18 -2 -24 -11 -26 -35 -3 -31 -1
-33 27 -33 30 0 31 1 31 45 0 25 -2 45 -5 45 -3 0 -5 -4 -5 -9z m-8 -33 c7
-19 -2 -38 -18 -38 -8 0 -14 8 -14 18 0 30 23 44 32 20z"/>
<path d="M1820 360 c0 -5 -6 -10 -14 -10 -21 0 -38 -27 -31 -50 4 -13 15 -20
31 -20 22 0 24 4 24 45 0 25 -2 45 -5 45 -3 0 -5 -4 -5 -10z m0 -45 c0 -16 -6
-25 -15 -25 -15 0 -21 31 -8 43 13 14 23 6 23 -18z"/>
<path d="M463 315 c0 -22 2 -30 4 -17 2 12 2 30 0 40 -3 9 -5 -1 -4 -23z"/>
<path d="M490 330 c0 -11 6 -20 14 -20 8 0 18 -5 22 -12 5 -8 0 -9 -14 -6 -12
4 -22 2 -22 -3 0 -5 11 -9 25 -9 31 0 34 29 5 37 -11 3 -20 10 -20 15 0 5 10
6 21 3 15 -5 19 -4 15 4 -12 19 -46 13 -46 -9z"/>
<path d="M591 296 c1 -28 3 -43 6 -34 2 9 14 18 26 20 17 2 22 10 22 33 0 26
-4 30 -27 31 -27 1 -28 -1 -27 -50z m46 28 c8 -21 -13 -42 -28 -27 -13 13 -5
43 11 43 6 0 13 -7 17 -16z"/>
<path d="M671 313 c1 -28 3 -31 6 -13 3 14 10 31 15 38 8 9 6 12 -6 12 -12 0
-16 -9 -15 -37z"/>
<path d="M714 336 c-11 -29 0 -51 26 -51 21 0 25 5 25 30 0 24 -5 31 -23 33
-13 2 -24 -3 -28 -12z m41 -22 c0 -10 -8 -20 -17 -22 -18 -3 -26 27 -11 42 12
11 28 0 28 -20z"/>
<path d="M790 335 c-18 -21 -8 -48 20 -55 17 -4 21 -8 12 -14 -6 -4 -16 -4
-22 -1 -5 3 -10 1 -10 -5 0 -6 10 -10 23 -8 19 3 22 10 25 51 3 41 1 47 -16
47 -11 0 -25 -7 -32 -15z m37 -11 c8 -22 -15 -44 -26 -25 -10 16 -4 41 10 41
5 0 12 -7 16 -16z"/>
<path d="M861 311 c1 -28 3 -30 6 -11 3 14 9 30 14 36 5 7 3 11 -6 11 -11 0
-15 -11 -14 -36z"/>
<path d="M905 340 c-5 -9 -1 -10 14 -5 11 3 21 2 21 -3 0 -5 -9 -12 -20 -15
-35 -9 -24 -37 14 -37 32 0 33 1 27 33 -7 33 -42 50 -56 27z m35 -40 c0 -5 -4
-10 -10 -10 -5 0 -10 5 -10 10 0 6 5 10 10 10 6 0 10 -4 10 -10z"/>
<path d="M981 310 l1 -35 7 30 c8 37 25 36 30 -2 l4 -28 6 29 c8 42 29 44 34
4 l4 -33 1 37 2 37 -45 -2 c-45 -2 -45 -2 -44 -37z"/>
<path d="M1091 313 c1 -36 2 -36 8 -9 9 43 31 45 32 4 l1 -33 7 29 c9 42 29
44 34 4 l4 -33 1 38 2 37 -45 0 -45 0 1 -37z"/>
<path d="M1204 336 c-15 -39 23 -74 50 -46 8 9 6 11 -11 6 -12 -4 -24 -2 -28
4 -4 6 5 10 20 10 21 0 26 4 21 16 -3 9 -6 18 -6 20 0 11 -41 2 -46 -10z m41
-6 c3 -5 -3 -10 -15 -10 -12 0 -18 5 -15 10 3 6 10 10 15 10 5 0 12 -4 15 -10z"/>
<path d="M1313 315 c0 -22 2 -30 4 -17 2 12 2 30 0 40 -3 9 -5 -1 -4 -23z"/>
<path d="M1345 340 c-8 -14 3 -30 21 -30 8 0 14 -5 14 -11 0 -6 -9 -9 -20 -6
-11 3 -20 1 -20 -4 0 -5 11 -9 25 -9 31 0 33 22 3 44 l-23 17 23 -5 c12 -2 20
0 16 5 -7 12 -31 11 -39 -1z"/>
<path d="M1480 316 c0 -33 2 -36 30 -36 28 0 30 3 30 36 0 21 -4 33 -10 29 -5
-3 -10 -17 -10 -31 0 -13 -4 -24 -10 -24 -5 0 -10 11 -10 24 0 14 -4 28 -10
31 -6 4 -10 -8 -10 -29z"/>
<path d="M1561 313 c1 -37 2 -37 8 -8 3 17 11 30 16 30 5 0 13 -13 16 -30 6
-29 7 -29 8 8 1 33 -2 37 -24 37 -22 0 -25 -4 -24 -37z"/>
<path d="M1711 336 c-26 -32 13 -76 42 -47 7 7 3 8 -12 4 -12 -3 -21 -1 -21 6
0 6 9 11 21 11 14 0 19 5 17 17 -4 23 -31 28 -47 9z m34 -6 c3 -5 -1 -10 -9
-10 -9 0 -16 5 -16 10 0 6 4 10 9 10 6 0 13 -4 16 -10z"/>
<path d="M490 157 c0 -47 1 -48 28 -45 23 2 27 8 27 33 0 22 -5 31 -20 34 -11
2 -23 8 -27 15 -4 6 -8 -11 -8 -37z m44 -3 c8 -20 -1 -34 -20 -34 -8 0 -14 8
-14 18 0 33 23 44 34 16z"/>
<path d="M668 190 c-5 -17 3 -80 11 -80 7 0 6 79 -2 86 -3 3 -7 0 -9 -6z"/>
<path d="M701 152 c1 -47 1 -47 10 -14 12 39 31 37 40 -4 l7 -29 1 32 c1 26
-5 34 -29 47 l-30 14 1 -46z"/>
<path d="M890 155 l0 -45 38 2 c36 1 36 1 5 5 -20 3 -33 10 -33 19 0 9 11 14
33 15 l32 1 -29 7 c-42 9 -44 29 -4 34 l33 4 -37 1 -38 2 0 -45z"/>
<path d="M1514 160 c1 -43 2 -45 31 -45 29 0 30 2 31 45 l2 45 -7 -40 c-5 -31
-10 -40 -26 -40 -16 0 -21 9 -26 40 l-7 40 2 -45z"/>
<path d="M560 174 c0 -6 5 -26 11 -44 9 -26 9 -34 -2 -41 -11 -7 -11 -9 -1 -9
7 0 22 21 33 46 20 49 20 72 -1 33 l-12 -22 -14 24 c-7 13 -13 19 -14 13z"/>
<path d="M780 165 c-18 -22 -3 -55 26 -55 13 0 24 4 24 9 0 5 -9 7 -20 4 -11
-3 -20 0 -20 6 0 6 11 11 25 11 27 0 32 9 13 28 -16 16 -33 15 -48 -3z m35 -5
c3 -5 -1 -10 -10 -10 -9 0 -13 5 -10 10 3 6 8 10 10 10 2 0 7 -4 10 -10z"/>
<path d="M982 148 c-2 -34 0 -38 23 -38 22 0 25 4 24 38 -1 35 -2 35 -8 8 -9
-42 -29 -44 -34 -4 l-4 33 -1 -37z"/>
<path d="M1063 173 c-7 -3 -12 -19 -12 -36 1 -22 3 -25 6 -12 3 11 10 26 16
33 12 15 7 21 -10 15z"/>
<path d="M1100 165 c-19 -23 -8 -50 22 -53 19 -2 28 2 33 18 12 39 -29 66 -55
35z m40 -26 c0 -22 -25 -26 -33 -5 -6 16 12 38 25 30 4 -3 8 -14 8 -25z"/>
<path d="M1177 173 c-4 -3 -6 -27 -6 -52 1 -25 3 -38 6 -29 2 9 14 18 26 20
40 6 32 67 -9 68 -6 0 -14 -3 -17 -7z m38 -29 c0 -10 -8 -20 -17 -22 -18 -3
-26 27 -11 42 12 11 28 0 28 -20z"/>
<path d="M1251 166 c-20 -24 -9 -51 22 -54 15 -2 27 1 27 6 0 6 -9 8 -20 5
-11 -3 -20 0 -20 6 0 6 9 11 21 11 14 0 19 5 17 17 -4 23 -31 28 -47 9z m34
-6 c3 -5 -1 -10 -9 -10 -9 0 -16 5 -16 10 0 6 4 10 9 10 6 0 13 -4 16 -10z"/>
<path d="M1324 169 c-4 -8 0 -9 15 -4 11 3 21 2 21 -3 0 -5 -9 -12 -20 -15
-31 -8 -25 -37 8 -37 26 0 28 2 24 35 -3 26 -9 35 -23 35 -10 0 -21 -5 -25
-11z m31 -39 c-3 -5 -10 -10 -16 -10 -5 0 -9 5 -9 10 0 6 7 10 16 10 8 0 12
-4 9 -10z"/>
<path d="M1403 173 c-7 -2 -13 -19 -12 -36 l1 -32 11 33 c12 39 29 37 39 -4 6
-27 6 -27 5 6 -2 34 -16 45 -44 33z"/>
<path d="M1601 141 c1 -35 2 -35 8 -7 9 41 31 46 31 7 0 -17 5 -31 11 -31 6 0
9 14 7 33 -3 27 -7 32 -30 33 -26 1 -28 -2 -27 -35z"/>
<path d="M1704 155 c-8 -31 6 -48 32 -43 29 5 26 62 -3 66 -17 3 -24 -3 -29
-23z m44 -13 c2 -14 -2 -22 -12 -22 -19 0 -29 17 -22 36 8 22 30 12 34 -14z"/>
<path d="M1781 140 c1 -34 1 -34 8 -6 9 42 29 44 34 4 l4 -33 1 37 c2 35 0 38
-23 36 -22 -2 -25 -7 -24 -38z"/>
<path d="M1670 139 c0 -17 4 -28 10 -24 6 3 10 17 10 31 0 13 -4 24 -10 24 -5
0 -10 -14 -10 -31z"/>
</g>
</svg>
